<svg id="Capa_1" data-name="Capa 1" xmlns="http://www.w3.org/2000/svg" viewBox="0 0 2856 801.09"><defs><style>.cls-1{font-size:333.96px;fill:#1d1d1b;font-family:GOODBRUSH, GOOD BRUSH;}.cls-2{letter-spacing:-0.02em;}.cls-3{letter-spacing:0.07em;}.cls-4{letter-spacing:-0.07em;}.cls-5{letter-spacing:-0.04em;}.cls-6{letter-spacing:0em;}.cls-7,.cls-8{font-size:604.31px;}.cls-7{letter-spacing:-0.01em;}.cls-9{fill:#74b62b;}.cls-10{fill:#c0182f;}</style></defs><text class="cls-1" transform="translate(7.56 606.5) scale(0.97 1)"><tspan class="cls-2">H</tspan><tspan x="176" y="0">O</tspan><tspan class="cls-3" x="379.71" y="0">S</tspan><tspan class="cls-4" x="568.06" y="0">T</tspan><tspan class="cls-5" x="693.96" y="0">A</tspan><tspan class="cls-6" x="877.64" y="0">L EL </tspan><tspan class="cls-7" x="1533.87" y="0">R</tspan><tspan class="cls-8" x="1847.51" y="0">UB</tspan></text><path class="cls-9" d="M2785.18,139.67c-106,67,45.33,214.61-142.08,216.39,13.75-110.48,64-424-127.81-304.14-31.58,31.93-21.89,74.46-10.95,254.16,5.19,47.83,12.15,302.2,8.1,348.55h101.09a2071.11,2071.11,0,0,0,22.88-239.36C2892.38,456.89,2891.24,114.37,2785.18,139.67Z"/><path class="cls-9" d="M2506.25,187.83l-20,3.57,27.18,32.19Z"/><polygon class="cls-9" points="2665.03 114.16 2645.01 124.17 2655.02 150.63 2665.03 114.16"/><polygon class="cls-9" points="2540.74 62.58 2540.74 13.95 2568.64 62.58 2540.74 62.58"/><path class="cls-9" d="M2524.06,326.58,2490.44,333l27.18,16.45C2518.32,347,2525.12,328.88,2524.06,326.58Z"/><polygon class="cls-9" points="2623.87 461.76 2623.87 491.08 2648.19 482.5 2623.87 461.76"/><path class="cls-9" d="M2671.1,360.91l4.66-22.88,20.74,31.47Z"/><polygon class="cls-9" points="2813.97 299.8 2810.94 342.71 2856 342.71 2813.97 299.8"/><polygon class="cls-9" points="2823.82 214.29 2833.47 234.32 2856 223.59 2823.82 214.29"/><polygon class="cls-9" points="2801.64 150.63 2797.35 123.46 2782.33 156.36 2801.64 150.63"/><path class="cls-9" d="M2645,218l-5.72,24.55L2665,238C2663.45,236.87,2647.67,215.33,2645,218Z"/><path class="cls-10" d="M2699.86,85.91l37,12.64,87-59.65L2774.11,0Z"/></svg>